#created with MagicaVoxel and VoxelOptimizer  - v:8 - f:6
o smile
mtllib smile.mtl
vn 0 1 0
vn 0 -1 0
vn -1 0 0
vn 1 0 0
vn 0 0 1
vn 0 0 -1
v -4 -4 -4
v -4 -4 4
v 4 -4 4
v 4 -4 -4
v -4 4 -4
v -4 4 4
v 4 4 4
v 4 4 -4
vt 0.000000000000000 1.000000000000000
vt 0.000000000000000 0.500000000000000
vt 0.500000000000000 0.500000000000000
vt 0.500000000000000 1.000000000000000
vt 1.000000000000000 0.500000000000000
vt 1.000000000000000 1.000000000000000
usemtl x
f 5/2/1 6/3/1 7/4/1 8/1/1
f 4/3/2 3/5/2 2/6/2 1/4/2
f 4/2/6 1/3/6 5/4/6 8/1/6
f 2/2/5 3/3/5 7/4/5 6/1/5
f 1/2/3 2/3/3 6/4/3 5/1/3
f 3/2/4 4/3/4 8/4/4 7/1/4
