# Blender 4.3.2
# www.blender.org
mtllib sword.mtl
o Cube.001
v -0.186283 0.510574 -0.030979
v -0.186283 0.595000 -0.030979
v 0.186293 0.510574 -0.030925
v 0.186293 0.595000 -0.030925
v -0.186293 0.510574 0.037689
v -0.186293 0.595000 0.037689
v 0.186283 0.510574 0.037743
v 0.186283 0.595000 0.037743
vn 0.0001 -0.0000 -1.0000
vn 1.0000 -0.0000 0.0001
vn -0.0001 -0.0000 1.0000
vn -1.0000 -0.0000 -0.0001
vn -0.0000 -1.0000 -0.0000
vn -0.0000 1.0000 -0.0000
vt 0.375000 0.000000
vt 0.625000 0.000000
vt 0.625000 0.250000
vt 0.375000 0.250000
vt 0.625000 0.500000
vt 0.375000 0.500000
vt 0.625000 0.750000
vt 0.375000 0.750000
vt 0.625000 1.000000
vt 0.375000 1.000000
vt 0.125000 0.500000
vt 0.125000 0.750000
vt 0.875000 0.500000
vt 0.875000 0.750000
s 1
usemtl Material.002
f 1/1/1 2/2/1 4/3/1 3/4/1
f 3/4/2 4/3/2 8/5/2 7/6/2
f 7/6/3 8/5/3 6/7/3 5/8/3
f 5/8/4 6/7/4 2/9/4 1/10/4
f 3/11/5 7/6/5 5/8/5 1/12/5
f 8/5/6 4/13/6 2/14/6 6/7/6
o Cylinder
v 0.040950 -0.001388 0.000006
v 0.040950 0.525370 0.000006
v 0.040161 -0.001388 0.007314
v 0.040161 0.525370 0.007314
v 0.037830 -0.001388 0.014339
v 0.037830 0.525370 0.014339
v 0.034045 -0.001388 0.020815
v 0.034045 0.525370 0.020815
v 0.028952 -0.001388 0.026488
v 0.028952 0.525370 0.026488
v 0.022745 -0.001388 0.031145
v 0.022746 0.525370 0.031145
v 0.015665 -0.001388 0.034606
v 0.015665 0.525370 0.034606
v 0.007983 -0.001388 0.036737
v 0.007983 0.525370 0.036737
v -0.000005 -0.001388 0.037456
v -0.000005 0.525370 0.037456
v -0.007993 -0.001388 0.036735
v -0.007993 0.525370 0.036735
v -0.015675 -0.001388 0.034602
v -0.015675 0.525370 0.034602
v -0.022755 -0.001388 0.031139
v -0.022754 0.525370 0.031139
v -0.028960 -0.001388 0.026480
v -0.028960 0.525370 0.026480
v -0.034051 -0.001388 0.020805
v -0.034051 0.525370 0.020805
v -0.037834 -0.001388 0.014329
v -0.037834 0.525370 0.014329
v -0.040163 -0.001388 0.007302
v -0.040163 0.525370 0.007302
v -0.040950 -0.001388 -0.000006
v -0.040950 0.525370 -0.000006
v -0.040161 -0.001388 -0.007314
v -0.040161 0.525370 -0.007314
v -0.037830 -0.001388 -0.014339
v -0.037830 0.525370 -0.014339
v -0.034045 -0.001388 -0.020815
v -0.034045 0.525370 -0.020815
v -0.028952 -0.001388 -0.026488
v -0.028952 0.525370 -0.026488
v -0.022745 -0.001388 -0.031145
v -0.022745 0.525370 -0.031145
v -0.015665 -0.001388 -0.034606
v -0.015665 0.525370 -0.034606
v -0.007983 -0.001388 -0.036737
v -0.007983 0.525370 -0.036737
v 0.000005 -0.001388 -0.037456
v 0.000005 0.525370 -0.037456
v 0.007993 -0.001388 -0.036735
v 0.007993 0.525370 -0.036735
v 0.015675 -0.001388 -0.034602
v 0.015675 0.525370 -0.034602
v 0.022755 -0.001388 -0.031139
v 0.022755 0.525370 -0.031139
v 0.028960 -0.001388 -0.026480
v 0.028960 0.525370 -0.026480
v 0.034051 -0.001388 -0.020805
v 0.034051 0.525370 -0.020805
v 0.037834 -0.001388 -0.014329
v 0.037834 0.525370 -0.014329
v 0.040163 -0.001388 -0.007302
v 0.040163 0.525370 -0.007302
vn 0.9942 -0.0000 0.1073
vn 0.9491 -0.0000 0.3149
vn 0.8633 -0.0000 0.5046
vn 0.7441 -0.0000 0.6680
vn 0.6002 -0.0000 0.7999
vn 0.4391 -0.0000 0.8984
vn 0.2673 -0.0000 0.9636
vn 0.0896 -0.0000 0.9960
vn -0.0899 -0.0000 0.9959
vn -0.2676 -0.0000 0.9635
vn -0.4394 -0.0000 0.8983
vn -0.6004 -0.0000 0.7997
vn -0.7443 -0.0000 0.6678
vn -0.8635 -0.0000 0.5044
vn -0.9492 -0.0000 0.3146
vn -0.9943 -0.0000 0.1071
vn -0.9942 -0.0000 -0.1073
vn -0.9491 -0.0000 -0.3149
vn -0.8633 -0.0000 -0.5046
vn -0.7441 -0.0000 -0.6680
vn -0.6002 -0.0000 -0.7999
vn -0.4391 -0.0000 -0.8984
vn -0.2673 -0.0000 -0.9636
vn -0.0896 -0.0000 -0.9960
vn 0.0899 -0.0000 -0.9959
vn 0.2676 -0.0000 -0.9635
vn 0.4394 -0.0000 -0.8983
vn 0.6004 -0.0000 -0.7997
vn 0.7443 -0.0000 -0.6678
vn 0.8635 -0.0000 -0.5044
vn -0.0000 1.0000 -0.0000
vn 0.9492 -0.0000 -0.3146
vn 0.9943 -0.0000 -0.1071
vn -0.0000 -1.0000 -0.0000
vt 1.000000 0.500000
vt 1.000000 1.000000
vt 0.968750 1.000000
vt 0.968750 0.500000
vt 0.937500 1.000000
vt 0.937500 0.500000
vt 0.906250 1.000000
vt 0.906250 0.500000
vt 0.875000 1.000000
vt 0.875000 0.500000
vt 0.843750 1.000000
vt 0.843750 0.500000
vt 0.812500 1.000000
vt 0.812500 0.500000
vt 0.781250 1.000000
vt 0.781250 0.500000
vt 0.750000 1.000000
vt 0.750000 0.500000
vt 0.718750 1.000000
vt 0.718750 0.500000
vt 0.687500 1.000000
vt 0.687500 0.500000
vt 0.656250 1.000000
vt 0.656250 0.500000
vt 0.625000 1.000000
vt 0.625000 0.500000
vt 0.593750 1.000000
vt 0.593750 0.500000
vt 0.562500 1.000000
vt 0.562500 0.500000
vt 0.531250 1.000000
vt 0.531250 0.500000
vt 0.500000 1.000000
vt 0.500000 0.500000
vt 0.468750 1.000000
vt 0.468750 0.500000
vt 0.437500 1.000000
vt 0.437500 0.500000
vt 0.406250 1.000000
vt 0.406250 0.500000
vt 0.375000 1.000000
vt 0.375000 0.500000
vt 0.343750 1.000000
vt 0.343750 0.500000
vt 0.312500 1.000000
vt 0.312500 0.500000
vt 0.281250 1.000000
vt 0.281250 0.500000
vt 0.250000 1.000000
vt 0.250000 0.500000
vt 0.218750 1.000000
vt 0.218750 0.500000
vt 0.187500 1.000000
vt 0.187500 0.500000
vt 0.156250 1.000000
vt 0.156250 0.500000
vt 0.125000 1.000000
vt 0.125000 0.500000
vt 0.093750 1.000000
vt 0.093750 0.500000
vt 0.062500 1.000000
vt 0.062500 0.500000
vt 0.296822 0.485388
vt 0.250000 0.490000
vt 0.203178 0.485388
vt 0.158156 0.471731
vt 0.116663 0.449553
vt 0.080294 0.419706
vt 0.050447 0.383337
vt 0.028269 0.341844
vt 0.014612 0.296822
vt 0.010000 0.250000
vt 0.014612 0.203178
vt 0.028269 0.158156
vt 0.050447 0.116663
vt 0.080294 0.080294
vt 0.116663 0.050447
vt 0.158156 0.028269
vt 0.203178 0.014612
vt 0.250000 0.010000
vt 0.296822 0.014612
vt 0.341844 0.028269
vt 0.383337 0.050447
vt 0.419706 0.080294
vt 0.449553 0.116663
vt 0.471731 0.158156
vt 0.485388 0.203178
vt 0.490000 0.250000
vt 0.485388 0.296822
vt 0.471731 0.341844
vt 0.449553 0.383337
vt 0.419706 0.419706
vt 0.383337 0.449553
vt 0.341844 0.471731
vt 0.031250 1.000000
vt 0.031250 0.500000
vt 0.000000 1.000000
vt 0.000000 0.500000
vt 0.750000 0.490000
vt 0.796822 0.485388
vt 0.841844 0.471731
vt 0.883337 0.449553
vt 0.919706 0.419706
vt 0.949553 0.383337
vt 0.971731 0.341844
vt 0.985388 0.296822
vt 0.990000 0.250000
vt 0.985388 0.203178
vt 0.971731 0.158156
vt 0.949553 0.116663
vt 0.919706 0.080294
vt 0.883337 0.050447
vt 0.841844 0.028269
vt 0.796822 0.014612
vt 0.750000 0.010000
vt 0.703178 0.014612
vt 0.658156 0.028269
vt 0.616663 0.050447
vt 0.580294 0.080294
vt 0.550447 0.116663
vt 0.528269 0.158156
vt 0.514612 0.203178
vt 0.510000 0.250000
vt 0.514612 0.296822
vt 0.528269 0.341844
vt 0.550447 0.383337
vt 0.580294 0.419706
vt 0.616663 0.449553
vt 0.658156 0.471731
vt 0.703178 0.485388
s 1
usemtl Material.003
f 9/15/7 10/16/7 12/17/7 11/18/7
f 11/18/8 12/17/8 14/19/8 13/20/8
f 13/20/9 14/19/9 16/21/9 15/22/9
f 15/22/10 16/21/10 18/23/10 17/24/10
f 17/24/11 18/23/11 20/25/11 19/26/11
f 19/26/12 20/25/12 22/27/12 21/28/12
f 21/28/13 22/27/13 24/29/13 23/30/13
f 23/30/14 24/29/14 26/31/14 25/32/14
f 25/32/15 26/31/15 28/33/15 27/34/15
f 27/34/16 28/33/16 30/35/16 29/36/16
f 29/36/17 30/35/17 32/37/17 31/38/17
f 31/38/18 32/37/18 34/39/18 33/40/18
f 33/40/19 34/39/19 36/41/19 35/42/19
f 35/42/20 36/41/20 38/43/20 37/44/20
f 37/44/21 38/43/21 40/45/21 39/46/21
f 39/46/22 40/45/22 42/47/22 41/48/22
f 41/48/23 42/47/23 44/49/23 43/50/23
f 43/50/24 44/49/24 46/51/24 45/52/24
f 45/52/25 46/51/25 48/53/25 47/54/25
f 47/54/26 48/53/26 50/55/26 49/56/26
f 49/56/27 50/55/27 52/57/27 51/58/27
f 51/58/28 52/57/28 54/59/28 53/60/28
f 53/60/29 54/59/29 56/61/29 55/62/29
f 55/62/30 56/61/30 58/63/30 57/64/30
f 57/64/31 58/63/31 60/65/31 59/66/31
f 59/66/32 60/65/32 62/67/32 61/68/32
f 61/68/33 62/67/33 64/69/33 63/70/33
f 63/70/34 64/69/34 66/71/34 65/72/34
f 65/72/35 66/71/35 68/73/35 67/74/35
f 67/74/36 68/73/36 70/75/36 69/76/36
f 12/77/37 10/78/37 72/79/37 70/80/37 68/81/37 66/82/37 64/83/37 62/84/37 60/85/37 58/86/37 56/87/37 54/88/37 52/89/37 50/90/37 48/91/37 46/92/37 44/93/37 42/94/37 40/95/37 38/96/37 36/97/37 34/98/37 32/99/37 30/100/37 28/101/37 26/102/37 24/103/37 22/104/37 20/105/37 18/106/37 16/107/37 14/108/37
f 69/76/38 70/75/38 72/109/38 71/110/38
f 71/110/39 72/109/39 10/111/39 9/112/39
f 9/113/40 11/114/40 13/115/40 15/116/40 17/117/40 19/118/40 21/119/40 23/120/40 25/121/40 27/122/40 29/123/40 31/124/40 33/125/40 35/126/40 37/127/40 39/128/40 41/129/40 43/130/40 45/131/40 47/132/40 49/133/40 51/134/40 53/135/40 55/136/40 57/137/40 59/138/40 61/139/40 63/140/40 65/141/40 67/142/40 69/143/40 71/144/40
o Icosphere
v 0.000000 0.470512 0.000000
v -0.025279 0.755436 -0.022188
v -0.040907 0.755436 0.008468
v -0.000004 0.755438 0.027422
v 0.040905 0.755436 0.008480
v 0.025285 0.755436 -0.022180
v -0.040905 1.216466 -0.008480
v -0.025285 1.216466 0.022180
v 0.025279 1.216466 0.022188
v 0.040907 1.216466 -0.008468
v 0.000004 1.216464 -0.027422
v 0.000000 1.501392 0.000000
v -0.024045 0.547490 0.004977
v -0.014858 0.547490 -0.013042
v -0.038903 0.714966 -0.008064
v 0.000004 0.714966 -0.026078
v 0.014862 0.547490 -0.013038
v -0.000002 0.547492 0.016118
v -0.024047 0.714966 0.021095
v 0.024043 0.547490 0.004983
v 0.024041 0.714966 0.021101
v 0.038905 0.714966 -0.008052
v -0.014856 0.985952 -0.029160
v 0.014864 0.985952 -0.029156
v -0.048088 0.985952 -0.000007
v -0.038901 0.985952 -0.018026
v -0.014864 0.985952 0.029156
v -0.038907 0.985952 0.018014
v 0.038901 0.985952 0.018026
v 0.014856 0.985952 0.029160
v 0.038907 0.985952 -0.018014
v 0.048088 0.985952 0.000007
v -0.024041 1.256938 -0.021101
v -0.038905 1.256938 0.008052
v -0.000004 1.256936 0.026078
v 0.038903 1.256938 0.008064
v 0.024047 1.256938 -0.021095
v -0.024043 1.424412 -0.004983
v 0.000002 1.424412 -0.016118
v -0.014862 1.424412 0.013038
v 0.014858 1.424412 0.013042
v 0.024045 1.424412 -0.004977
vn -0.8645 -0.2415 -0.4408
vn -0.2365 -0.0545 -0.9701
vn -0.4131 -0.1866 0.8914
vn 0.4128 -0.1866 0.8915
vn 0.8646 -0.2415 -0.4405
vn -0.1853 -0.0213 -0.9824
vn -0.9986 -0.0326 -0.0412
vn -0.2204 -0.0215 0.9752
vn 0.6387 -0.0263 0.7690
vn 0.6800 -0.0269 -0.7327
vn -0.4202 -0.0084 -0.9074
vn -0.8910 -0.0111 0.4539
vn -0.0001 -0.0075 1.0000
vn 0.8908 -0.0111 0.4542
vn 0.4204 -0.0084 -0.9073
vn -0.6981 0.0686 -0.7128
vn -0.6181 0.0654 0.7833
vn 0.2365 0.0545 0.9701
vn 0.9934 0.0819 -0.0801
vn 0.1689 0.0535 -0.9842
vn 0.4131 0.1866 -0.8914
vn 0.4189 0.0870 -0.9039
vn 0.6983 0.0686 -0.7125
vn 0.8645 0.2415 0.4408
vn 0.8851 0.1137 0.4513
vn 0.6179 0.0654 0.7835
vn -0.0001 0.1670 0.9860
vn -0.0001 0.0776 0.9970
vn -0.2368 0.0545 0.9700
vn -0.8646 0.2415 0.4405
vn -0.8853 0.1137 0.4510
vn -0.9934 0.0819 -0.0803
vn -0.4128 0.1866 -0.8915
vn -0.4186 0.0870 -0.9040
vn -0.1687 0.0535 -0.9842
vn 0.2204 0.0215 -0.9752
vn 0.4204 0.0127 -0.9072
vn 0.6389 0.0263 -0.7688
vn 0.9986 0.0326 0.0412
vn 0.8908 0.0167 0.4541
vn 0.6798 0.0269 0.7329
vn 0.1853 0.0213 0.9824
vn -0.0001 0.0114 0.9999
vn -0.1856 0.0213 0.9824
vn -0.6800 0.0269 0.7327
vn -0.8909 0.0167 0.4539
vn -0.9986 0.0326 0.0409
vn -0.6387 0.0263 -0.7690
vn -0.4202 0.0127 -0.9074
vn -0.2201 0.0215 -0.9752
vn 0.8910 0.0111 -0.4539
vn 0.8909 -0.0167 -0.4539
vn 0.9986 -0.0326 -0.0409
vn 0.4202 0.0084 0.9074
vn 0.4202 -0.0127 0.9074
vn 0.2201 -0.0215 0.9752
vn -0.4204 0.0084 0.9073
vn -0.4204 -0.0127 0.9072
vn -0.6389 -0.0263 0.7688
vn -0.8908 0.0111 -0.4542
vn -0.8908 -0.0167 -0.4541
vn -0.6798 -0.0269 -0.7329
vn 0.0001 0.0075 -1.0000
vn 0.0001 -0.0114 -0.9999
vn 0.1856 -0.0213 -0.9824
vn 0.6181 -0.0654 -0.7833
vn 0.8853 -0.1137 -0.4510
vn 0.9934 -0.0819 0.0803
vn 0.6981 -0.0686 0.7128
vn 0.4186 -0.0870 0.9040
vn 0.1687 -0.0535 0.9842
vn -0.1689 -0.0535 0.9842
vn -0.4189 -0.0870 0.9039
vn -0.6983 -0.0686 0.7126
vn 0.2368 -0.0545 -0.9700
vn 0.0001 -0.0776 -0.9970
vn 0.0001 -0.1670 -0.9860
vn -0.9934 -0.0819 0.0800
vn -0.8851 -0.1137 -0.4513
vn -0.6179 -0.0654 -0.7835
vt 0.181819 0.000000
vt 0.136365 0.078731
vt 0.227273 0.078731
vt 0.272728 0.157461
vt 0.363637 0.157461
vt 0.318182 0.078731
vt 0.909091 0.000000
vt 0.863636 0.078731
vt 0.954545 0.078731
vt 0.727273 0.000000
vt 0.681818 0.078731
vt 0.772727 0.078731
vt 0.545455 0.000000
vt 0.500000 0.078731
vt 0.590909 0.078731
vt 0.318182 0.236191
vt 0.090910 0.157461
vt 0.136365 0.236191
vt 0.181819 0.157461
vt 0.818182 0.157461
vt 0.863636 0.236191
vt 0.909091 0.157461
vt 0.636364 0.157461
vt 0.681818 0.236191
vt 0.727273 0.157461
vt 0.454546 0.157461
vt 0.500000 0.236191
vt 0.545455 0.157461
vt 0.227273 0.236191
vt 0.045455 0.236191
vt 0.772727 0.236191
vt 0.590909 0.236191
vt 0.409092 0.236191
vt 0.181819 0.314921
vt 0.227273 0.393651
vt 0.272728 0.314921
vt 0.000000 0.314921
vt 0.045455 0.393651
vt 0.090910 0.314921
vt 0.727273 0.314921
vt 0.772727 0.393651
vt 0.818182 0.314921
vt 0.545455 0.314921
vt 0.590909 0.393651
vt 0.636364 0.314921
vt 0.363637 0.314921
vt 0.409092 0.393651
vt 0.454546 0.314921
vt 0.454546 0.472382
vt 0.500000 0.393651
vt 0.636364 0.472382
vt 0.681818 0.393651
vt 0.818182 0.472382
vt 0.863636 0.393651
vt 0.909091 0.314921
vt 0.090910 0.472382
vt 0.136365 0.393651
vt 0.272728 0.472382
vt 0.318182 0.393651
vt 0.954545 0.236191
vt 1.000000 0.157461
vt 0.409092 0.078731
vt 0.363637 0.000000
s 1
usemtl Material.001
f 73/145/41 85/146/41 86/147/41
f 74/148/42 88/149/42 86/150/42
f 73/151/43 90/152/43 85/153/43
f 73/154/44 92/155/44 90/156/44
f 73/157/45 89/158/45 92/159/45
f 74/148/46 95/160/46 88/149/46
f 75/161/47 97/162/47 87/163/47
f 76/164/48 99/165/48 91/166/48
f 77/167/49 101/168/49 93/169/49
f 78/170/50 103/171/50 94/172/50
f 74/148/51 98/173/51 95/160/51
f 75/161/52 100/174/52 97/162/52
f 76/164/53 102/175/53 99/165/53
f 77/167/54 104/176/54 101/168/54
f 78/170/55 96/177/55 103/171/55
f 79/178/56 110/179/56 105/180/56
f 80/181/57 112/182/57 106/183/57
f 81/184/58 113/185/58 107/186/58
f 82/187/59 114/188/59 108/189/59
f 83/190/60 111/191/60 109/192/60
f 111/191/61 84/193/61 114/194/61
f 111/191/62 114/194/62 109/192/62
f 109/192/63 114/194/63 82/187/63
f 114/188/64 84/195/64 113/196/64
f 114/188/65 113/196/65 108/189/65
f 108/189/66 113/196/66 81/184/66
f 113/185/67 84/197/67 112/198/67
f 113/185/68 112/198/68 107/186/68
f 107/186/69 112/198/69 80/199/69
f 112/182/70 84/200/70 110/201/70
f 112/182/71 110/201/71 106/183/71
f 106/183/72 110/201/72 79/178/72
f 110/179/73 84/202/73 111/203/73
f 110/179/74 111/203/74 105/180/74
f 105/180/75 111/203/75 83/190/75
f 96/177/76 83/190/76 109/192/76
f 96/177/77 109/192/77 103/171/77
f 103/171/78 109/192/78 82/187/78
f 104/176/79 82/187/79 108/189/79
f 104/176/80 108/189/80 101/168/80
f 101/168/81 108/189/81 81/184/81
f 102/175/82 81/184/82 107/186/82
f 102/175/83 107/186/83 99/165/83
f 99/165/84 107/186/84 80/199/84
f 100/174/85 80/181/85 106/183/85
f 100/174/86 106/183/86 97/162/86
f 97/162/87 106/183/87 79/178/87
f 98/173/88 79/178/88 105/180/88
f 98/173/89 105/180/89 95/160/89
f 95/160/90 105/180/90 83/190/90
f 103/171/91 82/187/91 104/176/91
f 103/171/92 104/176/92 94/172/92
f 94/172/93 104/176/93 77/167/93
f 101/168/94 81/184/94 102/175/94
f 101/168/95 102/175/95 93/169/95
f 93/169/96 102/175/96 76/164/96
f 99/165/97 80/199/97 100/204/97
f 99/165/98 100/204/98 91/166/98
f 91/166/99 100/204/99 75/205/99
f 97/162/100 79/178/100 98/173/100
f 97/162/101 98/173/101 87/163/101
f 87/163/102 98/173/102 74/148/102
f 95/160/103 83/190/103 96/177/103
f 95/160/104 96/177/104 88/149/104
f 88/149/105 96/177/105 78/170/105
f 89/158/106 78/170/106 94/172/106
f 89/158/107 94/172/107 92/159/107
f 92/159/108 94/172/108 77/167/108
f 92/155/109 77/167/109 93/169/109
f 92/155/110 93/169/110 90/156/110
f 90/156/111 93/169/111 76/164/111
f 90/152/112 76/164/112 91/166/112
f 90/152/113 91/166/113 85/153/113
f 85/153/114 91/166/114 75/205/114
f 88/149/115 78/170/115 89/206/115
f 88/149/116 89/206/116 86/150/116
f 86/150/117 89/206/117 73/207/117
f 85/146/118 75/161/118 87/163/118
f 85/146/119 87/163/119 86/147/119
f 86/147/120 87/163/120 74/148/120
